HIERARCHY
ROOT Hips
{
	OFFSET 0.000000 83.214638 0.000000
	CHANNELS 6 Xposition Yposition Zposition Xrotation Yrotation Zrotation
	JOINT Pelvis
	{
		OFFSET 0.000000 0.000000 0.000000
		CHANNELS 3 Xrotation Yrotation Zrotation
		JOINT LeftUpLeg
		{
			OFFSET 8.479700 -4.795502 -0.379100
			CHANNELS 3 Xrotation Yrotation Zrotation
			JOINT LeftLeg
			{
				OFFSET 0.024144 -32.555107 0.112900
				CHANNELS 3 Xrotation Yrotation Zrotation
				JOINT LeftFoot
				{
					OFFSET -0.024144 -32.638630 -3.012600
					CHANNELS 3 Xrotation Yrotation Zrotation
					JOINT LeftToeBase
					{
						OFFSET 0.970200 -13.225400 11.864200
						CHANNELS 3 Xrotation Yrotation Zrotation
						End Site
						{
							OFFSET 0.000000 12.319262 0.000000
						}
					}
					JOINT LFootTongue
					{
						OFFSET 1.142400 -1.059800 6.665200
						CHANNELS 3 Xrotation Yrotation Zrotation
						End Site
						{
							OFFSET 0.000000 12.319262 0.000000
						}
					}
				}
				JOINT LeftPantLeg
				{
					OFFSET 0.918482 -16.533964 -2.284700
					CHANNELS 3 Xrotation Yrotation Zrotation
					End Site
					{
						OFFSET 0.350399 24.744368 0.000000
					}
				}
			}
		}
		JOINT RightUpLeg
		{
			OFFSET -8.479700 -4.795502 -0.379100
			CHANNELS 3 Xrotation Yrotation Zrotation
			JOINT RightLeg
			{
				OFFSET -0.023144 -32.555092 0.112900
				CHANNELS 3 Xrotation Yrotation Zrotation
				JOINT RightFoot
				{
					OFFSET 0.023144 -32.638641 -3.012700
					CHANNELS 3 Xrotation Yrotation Zrotation
					JOINT RightToeBase
					{
						OFFSET -0.970200 -13.225400 11.864200
						CHANNELS 3 Xrotation Yrotation Zrotation
						End Site
						{
							OFFSET 0.000000 12.319244 0.000000
						}
					}
					JOINT RFootTongue
					{
						OFFSET -1.142200 -1.059800 6.665200
						CHANNELS 3 Xrotation Yrotation Zrotation
						End Site
						{
							OFFSET 0.000000 12.319243 0.000000
						}
					}
				}
				JOINT RightPantLeg
				{
					OFFSET -0.919482 -16.533978 -2.284800
					CHANNELS 3 Xrotation Yrotation Zrotation
					End Site
					{
						OFFSET -0.350400 24.744419 0.000000
					}
				}
			}
		}
	}
	JOINT Spine
	{
		OFFSET 0.000000 7.722000 1.166200
		CHANNELS 3 Xrotation Yrotation Zrotation
		JOINT Spine1
		{
			OFFSET 0.000000 12.024101 0.248800
			CHANNELS 3 Xrotation Yrotation Zrotation
			JOINT Spine2
			{
				OFFSET 0.000000 11.502998 -0.491200
				CHANNELS 3 Xrotation Yrotation Zrotation
				JOINT Neck
				{
					OFFSET 0.000000 18.430702 -3.123100
					CHANNELS 3 Xrotation Yrotation Zrotation
					JOINT Head
					{
						OFFSET 0.000000 9.051102 1.034000
						CHANNELS 3 Xrotation Yrotation Zrotation
						JOINT HairB
						{
							OFFSET 0.208400 24.786102 24.822300
							CHANNELS 3 Xrotation Yrotation Zrotation
							End Site
							{
								OFFSET 0.000000 32.263779 0.000000
							}
						}
						JOINT HairA
						{
							OFFSET -7.081100 24.428299 23.196600
							CHANNELS 3 Xrotation Yrotation Zrotation
							End Site
							{
								OFFSET 0.000000 32.263779 0.000000
							}
						}
						JOINT Hat
						{
							OFFSET 16.728800 15.048294 -15.439601
							CHANNELS 3 Xrotation Yrotation Zrotation
							End Site
							{
								OFFSET 0.000000 32.263779 0.000000
							}
						}
					}
				}
				JOINT LeftShoulder
				{
					OFFSET 6.197800 13.665199 -4.064700
					CHANNELS 3 Xrotation Yrotation Zrotation
					JOINT LeftArm
					{
						OFFSET 7.778100 -0.187103 -1.709300
						CHANNELS 3 Xrotation Yrotation Zrotation
						JOINT LeftForeArm
						{
							OFFSET 22.049376 0.000000 0.000000
							CHANNELS 3 Xrotation Yrotation Zrotation
							JOINT LeftHand
							{
								OFFSET 23.009392 0.000000 0.000000
								CHANNELS 3 Xrotation Yrotation Zrotation
								JOINT LeftHandThumb1
								{
									OFFSET 3.507191 -2.063065 3.133727
									CHANNELS 3 Xrotation Yrotation Zrotation
									JOINT LeftHandThumb2
									{
										OFFSET 3.101337 -1.790558 1.790558
										CHANNELS 3 Xrotation Yrotation Zrotation
										JOINT LeftHandThumb3
										{
											OFFSET 3.058640 -1.765907 1.765906
											CHANNELS 3 Xrotation Yrotation Zrotation
											End Site
											{
												OFFSET -0.415260 3.926476 -0.049563
											}
										}
									}
								}
								JOINT LeftHandIndex1
								{
									OFFSET 11.334419 -0.901459 3.706815
									CHANNELS 3 Xrotation Yrotation Zrotation
									JOINT LeftHandIndex2
									{
										OFFSET 3.283112 0.000000 0.000000
										CHANNELS 3 Xrotation Yrotation Zrotation
										JOINT LeftHandIndex3
										{
											OFFSET 3.323853 0.000000 0.000000
											CHANNELS 3 Xrotation Yrotation Zrotation
											End Site
											{
												OFFSET -1.135597 3.097809 0.402452
											}
										}
									}
								}
								JOINT LeftHandMiddle1
								{
									OFFSET 11.335861 0.000000 0.000000
									CHANNELS 3 Xrotation Yrotation Zrotation
									JOINT LeftHandMiddle2
									{
										OFFSET 3.410492 0.000000 0.000000
										CHANNELS 3 Xrotation Yrotation Zrotation
										JOINT LeftHandMiddle3
										{
											OFFSET 3.312172 0.000000 0.000000
											CHANNELS 3 Xrotation Yrotation Zrotation
											End Site
											{
												OFFSET -1.150200 3.080154 0.400270
											}
										}
									}
								}
								JOINT LeftHandRing1
								{
									OFFSET 11.514786 -0.013176 -3.003090
									CHANNELS 3 Xrotation Yrotation Zrotation
									JOINT LeftHandRing2
									{
										OFFSET 3.053307 0.000000 0.000000
										CHANNELS 3 Xrotation Yrotation Zrotation
										JOINT LeftHandRing3
										{
											OFFSET 3.295807 0.000000 0.000000
											CHANNELS 3 Xrotation Yrotation Zrotation
											End Site
											{
												OFFSET -1.281006 3.013344 0.375733
											}
										}
									}
								}
								JOINT LeftHandPinky1
								{
									OFFSET 10.518692 -0.960396 -5.730441
									CHANNELS 3 Xrotation Yrotation Zrotation
									JOINT LeftHandPinky2
									{
										OFFSET 2.861649 0.000000 0.000000
										CHANNELS 3 Xrotation Yrotation Zrotation
										JOINT LeftHandPinky3
										{
											OFFSET 2.863380 0.000000 0.000000
											CHANNELS 3 Xrotation Yrotation Zrotation
											End Site
											{
												OFFSET -0.843597 2.711159 0.369971
											}
										}
									}
								}
							}
							JOINT LSleeve
							{
								OFFSET 6.676277 -0.344902 -1.011730
								CHANNELS 3 Xrotation Yrotation Zrotation
								End Site
								{
									OFFSET 0.000000 14.885353 0.000000
								}
							}
						}
					}
				}
				JOINT RightShoulder
				{
					OFFSET -6.197800 13.665199 -4.064700
					CHANNELS 3 Xrotation Yrotation Zrotation
					JOINT RightArm
					{
						OFFSET -7.778100 -0.187103 -1.709300
						CHANNELS 3 Xrotation Yrotation Zrotation
						JOINT RightForeArm
						{
							OFFSET -22.049376 0.000000 0.000000
							CHANNELS 3 Xrotation Yrotation Zrotation
							JOINT RightHand
							{
								OFFSET -23.009392 0.000000 0.000000
								CHANNELS 3 Xrotation Yrotation Zrotation
								JOINT RightHandThumb1
								{
									OFFSET -3.507191 -2.063065 3.133727
									CHANNELS 3 Xrotation Yrotation Zrotation
									JOINT RightHandThumb2
									{
										OFFSET -3.101337 -1.790558 1.790558
										CHANNELS 3 Xrotation Yrotation Zrotation
										JOINT RightHandThumb3
										{
											OFFSET -3.058640 -1.765907 1.765906
											CHANNELS 3 Xrotation Yrotation Zrotation
											End Site
											{
												OFFSET 0.415260 3.926476 -0.049563
											}
										}
									}
								}
								JOINT RightHandIndex1
								{
									OFFSET -11.334419 -0.901459 3.706815
									CHANNELS 3 Xrotation Yrotation Zrotation
									JOINT RightHandIndex2
									{
										OFFSET -3.283112 0.000000 0.000000
										CHANNELS 3 Xrotation Yrotation Zrotation
										JOINT RightHandIndex3
										{
											OFFSET -3.323853 0.000000 0.000000
											CHANNELS 3 Xrotation Yrotation Zrotation
											End Site
											{
												OFFSET 1.135597 3.097809 0.402452
											}
										}
									}
								}
								JOINT RightHandMiddle1
								{
									OFFSET -11.335861 0.000000 0.000000
									CHANNELS 3 Xrotation Yrotation Zrotation
									JOINT RightHandMiddle2
									{
										OFFSET -3.410492 0.000000 0.000000
										CHANNELS 3 Xrotation Yrotation Zrotation
										JOINT RightHandMiddle3
										{
											OFFSET -3.312172 0.000000 0.000000
											CHANNELS 3 Xrotation Yrotation Zrotation
											End Site
											{
												OFFSET 1.150200 3.080154 0.400270
											}
										}
									}
								}
								JOINT RightHandRing1
								{
									OFFSET -11.514786 -0.013176 -3.003090
									CHANNELS 3 Xrotation Yrotation Zrotation
									JOINT RightHandRing2
									{
										OFFSET -3.053307 0.000000 0.000000
										CHANNELS 3 Xrotation Yrotation Zrotation
										JOINT RightHandRing3
										{
											OFFSET -3.295807 0.000000 0.000000
											CHANNELS 3 Xrotation Yrotation Zrotation
											End Site
											{
												OFFSET 1.281006 3.013344 0.375733
											}
										}
									}
								}
								JOINT RightHandPinky1
								{
									OFFSET -10.518692 -0.960396 -5.730441
									CHANNELS 3 Xrotation Yrotation Zrotation
									JOINT RightHandPinky2
									{
										OFFSET -2.861649 0.000000 0.000000
										CHANNELS 3 Xrotation Yrotation Zrotation
										JOINT RightHandPinky3
										{
											OFFSET -2.863380 0.000000 0.000000
											CHANNELS 3 Xrotation Yrotation Zrotation
											End Site
											{
												OFFSET 0.843597 2.711159 0.369971
											}
										}
									}
								}
							}
							JOINT RSleeve
							{
								OFFSET -6.676277 -0.344902 -1.011730
								CHANNELS 3 Xrotation Yrotation Zrotation
								End Site
								{
									OFFSET 0.000000 14.885353 0.000000
								}
							}
						}
					}
				}
				JOINT Backpack
				{
					OFFSET 0.000000 -2.471497 36.677502
					CHANNELS 3 Xrotation Yrotation Zrotation
					End Site
					{
						OFFSET 0.000000 20.427315 0.000000
					}
				}
				JOINT Hood
				{
					OFFSET 0.000000 18.754097 -10.431000
					CHANNELS 3 Xrotation Yrotation Zrotation
					JOINT Hood1
					{
						OFFSET 0.000000 -5.011002 -7.685901
						CHANNELS 3 Xrotation Yrotation Zrotation
						End Site
						{
							OFFSET 0.000000 9.175140 0.000000
						}
					}
				}
				JOINT LHoodieString
				{
					OFFSET 5.250500 16.397697 3.089900
					CHANNELS 3 Xrotation Yrotation Zrotation
					JOINT LHoodieString1
					{
						OFFSET 0.257700 -6.364304 3.694600
						CHANNELS 3 Xrotation Yrotation Zrotation
						JOINT LHoodieString2
						{
							OFFSET 0.000000 -9.643799 2.679100
							CHANNELS 3 Xrotation Yrotation Zrotation
							End Site
							{
								OFFSET 0.000000 10.009018 0.000000
							}
						}
					}
				}
				JOINT RHoodieString
				{
					OFFSET -5.250500 16.397697 3.089900
					CHANNELS 3 Xrotation Yrotation Zrotation
					JOINT RHoodieString1
					{
						OFFSET -0.257700 -6.364304 3.694600
						CHANNELS 3 Xrotation Yrotation Zrotation
						JOINT RHoodieString2
						{
							OFFSET 0.000000 -9.643799 2.679100
							CHANNELS 3 Xrotation Yrotation Zrotation
							End Site
							{
								OFFSET 0.000000 10.009018 0.000000
							}
						}
					}
				}
			}
			JOINT LBackpack_Strap
			{
				OFFSET 15.223200 -7.719803 -6.610900
				CHANNELS 3 Xrotation Yrotation Zrotation
				End Site
				{
					OFFSET 0.000000 16.040596 0.000000
				}
			}
			JOINT RBackpack_Strap
			{
				OFFSET -15.223000 -7.719803 -6.610900
				CHANNELS 3 Xrotation Yrotation Zrotation
				End Site
				{
					OFFSET 0.000000 16.040596 0.000000
				}
			}
		}
	}
	JOINT BoyFacialAnim_Joint
	{
		OFFSET 1.000000 -82.208099 -1.550900
		CHANNELS 3 Xrotation Yrotation Zrotation
		End Site
		{
			OFFSET 0.000000 30.012791 0.000000
		}
	}
}
MOTION
Frames: 4
Frame Time: 0.033333
351.210876 11.515602 113.502518 53.095346 160.977368 129.047777 0.000001 0.000000 -0.000002 -83.661464 22.110152 -18.445124 65.956391 -4.242978 -1.743771 -18.454440 29.673432 -4.511714 -0.000003 0.000002 0.000003 -0.000003 0.000002 0.000003 -0.000001 0.000000 0.000001 -59.615093 39.554059 -23.523981 126.737124 -4.673688 5.580419 12.672082 -10.314846 -31.242631 -0.000000 0.000002 -0.000001 -0.000000 0.000002 -0.000001 0.000002 -0.000001 0.000001 27.015565 2.173952 3.333528 10.549381 0.948027 4.610534 10.507637 1.458997 4.528414 -0.525253 -0.698690 6.686108 -0.128826 19.452804 7.272919 0.000000 0.000000 -0.000000 0.000000 0.000000 -0.000000 0.000000 0.000000 -0.000000 -1.830061 11.176083 9.258066 -53.804942 -36.531485 -67.309240 0.000051 -106.822465 0.000054 4.447496 13.737396 19.046061 -1.540045 3.690159 6.142357 3.939046 7.948703 0.746808 0.000000 -0.000006 0.000001 -0.070089 0.828191 -17.392722 0.322498 2.086490 -17.571128 -0.000001 0.000001 -0.000000 -0.043434 0.984871 -18.392946 0.330292 2.110933 -17.783898 0.000001 -0.000000 0.000000 -0.885668 -2.009794 -16.666135 0.360716 2.203478 -18.592398 -0.000000 0.000001 -0.000004 -1.053023 -2.759162 -16.079662 0.261451 -2.169379 -16.336754 0.000000 0.000004 0.000000 -0.000001 0.000000 -0.000002 0.172405 -4.750420 3.927903 -19.082326 13.422182 21.971035 0.007805 92.964899 -0.007802 20.006828 8.491102 27.884483 -2.659624 -4.211294 -6.924333 4.637190 -8.634125 -0.225398 0.000000 0.000001 0.000000 1.104404 -3.774082 30.640871 1.016198 -3.624346 31.315707 -0.000002 -0.000002 0.000003 1.251643 -4.011438 31.253457 1.017579 -3.626600 31.337646 -0.000000 0.000000 -0.000002 1.167557 -3.872756 31.319245 1.021282 -3.632665 31.396057 -0.000001 -0.000003 0.000007 1.083766 -3.735955 33.587814 1.017020 -3.625699 31.328671 0.000002 -0.000000 0.000002 -0.000002 -0.000001 -0.000000 -0.000000 -0.000001 -0.000002 -0.000000 -0.000001 -0.000002 -0.000000 -0.000001 -0.000002 -0.000000 -0.000001 -0.000002 -0.000000 -0.000001 -0.000001 -0.000000 0.000000 0.000000 -0.000000 -0.000001 -0.000002 -0.000000 -0.000001 -0.000001 -0.000000 0.000000 0.000000 -0.000001 0.000000 -0.000001 -0.000001 0.000000 -0.000001 0.000001 0.000000 -0.000002 
354.780365 9.049065 115.208702 59.134494 158.567664 130.997550 -0.000001 0.000000 0.000000 -84.509575 21.982607 -16.749970 64.450157 -5.516561 -1.688993 -17.986492 28.569488 -7.749035 -0.000001 0.000000 0.000001 -0.000001 0.000000 0.000001 0.000003 -0.000002 -0.000002 -66.024973 37.287386 -25.574581 136.269555 0.297233 6.026678 14.082463 -10.840133 -33.569062 0.000002 -0.000000 -0.000001 0.000002 -0.000000 -0.000001 -0.000003 0.000002 -0.000001 27.433226 2.771034 3.383682 9.824081 1.123684 4.873656 9.769646 1.717410 4.765475 -0.833236 -0.204899 6.905696 -6.321230 26.880058 7.901756 0.000001 0.000000 0.000001 0.000001 0.000000 0.000001 0.000001 0.000000 0.000001 -1.840723 9.735064 10.913795 -44.791940 -33.809532 -57.613329 0.000049 -106.354378 0.000066 1.681604 17.903560 14.799034 -1.540033 3.690222 6.142387 3.939059 7.948710 0.746814 -0.000002 -0.000002 0.000002 -0.070187 0.825017 -17.355062 0.321100 2.082006 -17.532279 -0.000000 -0.000002 -0.000002 -0.043767 0.981226 -18.355479 0.328861 2.106442 -17.744893 0.000002 0.000000 -0.000005 -0.884492 -2.015102 -16.629844 0.359263 2.199126 -18.554294 0.000001 0.000002 -0.000002 -1.051992 -2.766004 -16.046143 0.260269 -2.173407 -16.301976 0.000001 0.000002 0.000003 0.000000 -0.000001 0.000002 0.149436 -5.200640 3.822518 -13.388983 6.722120 12.390098 -0.000005 103.713417 0.000005 17.779735 5.392120 24.899306 -2.298863 -4.088294 -7.021018 4.637213 -8.634133 -0.225406 -0.000002 0.000001 0.000001 1.112043 -3.779916 31.606820 1.072986 -3.715877 32.202781 -0.000002 0.000002 0.000004 1.260778 -4.013069 32.216578 1.072815 -3.715610 32.200237 0.000002 0.000002 -0.000005 1.173022 -3.873854 32.283217 1.073923 -3.717374 32.217415 0.000002 0.000001 0.000000 1.088136 -3.748012 34.548234 1.071174 -3.713030 32.175030 0.000004 0.000001 -0.000001 0.000000 -0.000001 -0.000000 -0.000000 -0.000000 0.000002 -0.000000 -0.000000 0.000002 -0.000000 -0.000000 0.000002 -0.000000 -0.000000 0.000002 -0.000000 -0.000000 0.000001 -0.000000 0.000001 0.000001 -0.000000 -0.000000 0.000002 -0.000000 -0.000000 0.000001 -0.000000 0.000001 0.000001 0.000000 0.000000 0.000001 0.000000 0.000000 0.000001 -0.000001 0.000000 0.000000 
358.170715 7.808838 116.734741 65.121920 156.581581 133.092438 -0.000003 -0.000001 -0.000002 -85.552976 22.296973 -15.760662 62.175663 -5.245311 -1.591557 -14.997171 29.590056 -8.563111 -0.000001 -0.000001 -0.000001 -0.000001 -0.000001 -0.000000 -0.000003 -0.000003 -0.000001 -69.538306 36.131079 -32.887129 143.915132 2.642091 6.278282 18.745849 -9.575917 -35.909860 -0.000000 -0.000000 0.000000 -0.000000 -0.000000 0.000000 0.000002 0.000001 -0.000002 26.387466 1.984876 3.670599 8.425690 0.686859 4.734355 8.386481 1.269256 4.644705 -0.714615 0.240521 6.636806 -10.894748 31.066525 9.632187 -0.000000 0.000000 -0.000002 -0.000000 0.000000 -0.000002 -0.000000 0.000000 -0.000002 -1.401589 6.913330 11.816671 -35.490213 -24.897242 -48.539747 0.000154 -106.886197 0.000163 -14.781339 19.779164 17.873686 -1.540052 3.690280 6.142439 3.939052 7.948709 0.746794 -0.000000 -0.000001 -0.000001 -0.070091 0.827275 -17.380318 0.322045 2.085025 -17.558401 -0.000002 0.000000 -0.000005 -0.043578 0.983591 -18.380731 0.329823 2.109454 -17.771100 0.000003 0.000001 0.000000 -0.885541 -2.012381 -16.654414 0.360246 2.202049 -18.579896 -0.000001 -0.000000 -0.000004 -1.053148 -2.763045 -16.068821 0.261058 -2.170700 -16.325358 -0.000000 -0.000000 -0.000000 0.000001 -0.000001 -0.000000 0.114527 -5.616844 3.666378 -7.049721 0.657292 6.337734 0.000045 112.017220 -0.000042 15.411239 2.104831 21.447523 -1.677074 -3.480237 -6.569209 4.637202 -8.634128 -0.225399 -0.000001 0.000000 0.000000 1.016230 -3.625170 31.902082 1.053965 -3.685567 31.908188 -0.000002 -0.000000 0.000004 1.163228 -3.857506 32.494850 1.053834 -3.685355 31.906040 -0.000000 0.000002 -0.000002 1.070783 -3.712771 32.565580 1.053744 -3.685227 31.904876 -0.000002 -0.000000 0.000002 0.981169 -3.596516 34.811944 1.053554 -3.684936 31.901915 -0.000000 0.000002 -0.000003 0.000000 -0.000001 0.000001 -0.000000 -0.000000 -0.000000 -0.000000 -0.000000 -0.000000 -0.000000 -0.000000 -0.000000 -0.000000 -0.000000 -0.000000 -0.000000 -0.000000 0.000002 -0.000001 -0.000000 -0.000000 -0.000000 -0.000000 -0.000000 -0.000000 -0.000000 0.000002 -0.000001 -0.000000 -0.000000 -0.000000 -0.000000 -0.000000 -0.000000 -0.000000 -0.000000 -0.000003 -0.000001 -0.000002 
361.496429 7.272232 117.744354 70.827272 154.226915 135.021024 -0.000002 -0.000001 0.000001 -85.314950 21.994959 -15.101852 59.366795 -3.689719 -1.515187 -12.266515 30.044052 -6.487352 -0.000000 0.000000 0.000001 -0.000000 0.000000 0.000001 -0.000002 -0.000002 -0.000000 -63.853212 35.330841 -45.745704 147.031392 2.388972 6.025406 23.714883 -2.839194 -35.373358 0.000000 0.000000 -0.000000 0.000000 0.000000 -0.000000 -0.000002 -0.000000 0.000001 24.001032 0.848266 4.167268 6.887758 -0.003611 4.131728 6.873929 0.458915 4.099912 -0.577402 0.374442 6.287054 -12.639501 30.495155 11.201657 -0.000000 -0.000001 0.000001 -0.000000 -0.000001 0.000001 -0.000000 -0.000001 0.000001 -0.858456 4.582944 10.859411 -27.293171 -16.633983 -42.452098 0.000386 -105.696160 0.000391 -32.274413 17.974722 24.255136 -1.540032 3.690154 6.142310 3.939049 7.948704 0.746810 -0.000001 -0.000001 0.000003 -0.070156 0.826499 -17.373028 0.321761 2.084145 -17.550793 -0.000000 -0.000000 -0.000004 -0.043625 0.982922 -18.373356 0.329538 2.108564 -17.763430 -0.000000 -0.000001 -0.000002 -0.885180 -2.013005 -16.647208 0.359959 2.201192 -18.572416 0.000000 0.000000 -0.000004 -1.052741 -2.763651 -16.062250 0.260832 -2.171495 -16.318516 -0.000001 0.000001 0.000002 0.000000 0.000000 0.000000 0.089753 -6.439682 3.952787 -1.147875 -5.768286 3.265177 0.000028 117.604752 -0.000026 14.995907 2.776820 17.741777 -1.662587 -3.390445 -6.438036 4.637205 -8.634119 -0.225405 -0.000001 0.000000 -0.000003 0.985915 -3.577050 32.033529 1.053184 -3.684322 31.895928 -0.000001 -0.000001 0.000003 1.139214 -3.819483 32.622479 1.053199 -3.684330 31.896246 -0.000000 0.000000 -0.000000 1.056206 -3.690252 32.692195 1.053170 -3.684309 31.895969 -0.000002 -0.000000 -0.000001 0.963910 -3.573533 34.935697 1.053256 -3.684462 31.897356 -0.000002 0.000002 0.000000 0.000001 -0.000002 0.000000 0.000001 0.000000 0.000001 0.000001 0.000000 0.000001 0.000001 0.000000 0.000001 0.000001 0.000000 0.000001 0.000001 0.000000 0.000003 0.000000 0.000000 0.000001 0.000001 0.000000 0.000001 0.000001 0.000000 0.000003 0.000000 0.000000 0.000001 0.000000 0.000000 -0.000001 0.000000 0.000000 -0.000001 -0.000002 -0.000001 0.000001 
